<?xml version="1.0" encoding="UTF-8" standalone="no"?>
<svg xmlns="http://www.w3.org/2000/svg" version="1.1" xmlns:xlink="http://www.w3.org/1999/xlink" xmlns:svgjs="http://svgjs.dev/svgjs" width="1000" height="1000" viewBox="0 0 1000 1000"><rect width="1000" height="1000" fill="#1ebbd7"></rect><g transform="matrix(0.7,0,0,0.7,149.95537054706176,123.00607022643709)"><svg viewBox="0 0 229 247" data-background-color="#1ebbd7" preserveAspectRatio="xMidYMid meet" height="1078" width="1000" xmlns="http://www.w3.org/2000/svg" xmlns:xlink="http://www.w3.org/1999/xlink"><g id="tight-bounds" transform="matrix(1,0,0,1,0.014696582128010505,-0.09997365579206985)"><svg viewBox="0 0 228.97070321112514 247.2" height="247.2" width="228.97070321112514"><g><svg viewBox="0 0 228.97070321112514 247.2" height="247.2" width="228.97070321112514"><g><svg viewBox="0 0 228.97070321112514 247.2" height="247.2" width="228.97070321112514"><g id="textblocktransform"><svg viewBox="0 0 228.97070321112514 247.2" height="247.2" width="228.97070321112514" id="textblock"><g><svg viewBox="0 0 228.97070321112514 247.2" height="247.2" width="228.97070321112514"><path d="M228.435 53.02C227.358 27.36 224.29 20.227 224.29 20.227 214.871-6.202 203.117-0.506 192.557 3.292 173.913 3.446 155.344 9.091 136.743 12.119 97.701 12.581 58.325 4.986 19.476 23.717 15.827 29.464-3.786 24.846 0.649 56.304 1.812 69.39 6.053 83.913 5.924 95.922 6.505 98.026 7.312 93.202 7.657 96.23 8.862 104.39 10.832 100.541 12.447 105.365 10.197 118.246 11.812 128.971 13.351 140.21 10.638 143.135 7.162 141.749 5.601 151.449 5.439 158.479 4.567 157.145 3.609 156.837 2.91 156.632 1.499 157.402 1.736 159.608 2.544 167.152-0.923 171.514 1.252 178.904-0.244 186.91 2.285 193.838 1.941 202.511 1.898 204.255 2.135 205.744 2.511 206.154 4.18 208.361 1.747 212.672 2.005 217.342 19.121 249.262 37.689 227.195 55.225 241.872 59.778 231.608 56.355 245.516 58.174 243.36 59.595 240.846 60.628 251.263 62.232 245.362 62.48 243.668 62.103 239.665 62.986 240.435 63.449 240.846 63.858 240.743 63.922 238.382 64.019 234.841 63.169 237.048 62.943 235.201 65.386 225.861 64.783 248.081 67.076 247.158 66.969 244.438 66.301 240.538 67.668 241.051 69.025 237.151 69.068 233.918 70.273 242.693 70.316 244.592 70.532 245.926 70.876 246.85 74.644 237.305 78.39 250.237 82.34 245.926 84.762 241.205 87.087 248.492 89.542 246.696 90.403 245.259 91.275 242.693 92.103 247.004 102.254 247.928 113.073 244.079 122.696 247.158 148.412 241.41 175.894 249.518 203.009 241.923 209.403 238.998 216.045 234.841 222.277 231.506 222.277 231.506 227.326 222.371 227.326 181.316S228.402 145.393 228.564 112.703C228.725 80.013 229.479 78.679 228.402 53.02Z" opacity="1" fill="#ffffff" data-fill-palette-color="tertiary"></path><g transform="matrix(1,0,0,1,55.76832,26.230666666666668)"><svg width="117.43406321112514" viewBox="2.25 -39.04999923706055 23.850000381469727 39.54999923706055" height="194.73866666666666" data-palette-color="#1ebbd7"><path d="M14.15 0.5L14.15 0.5Q10.7 0.5 8-1.03 5.3-2.55 3.78-5.25 2.25-7.95 2.25-11.4L2.25-11.4Q2.25-12.45 2.93-13.13 3.6-13.8 4.65-13.8L4.65-13.8Q5.7-13.8 6.35-13.13 7-12.45 7-11.4L7-11.4Q7-9.2 7.95-7.5 8.9-5.8 10.5-4.83 12.1-3.85 14.15-3.85L14.15-3.85Q16.25-3.85 17.88-4.83 19.5-5.8 20.43-7.5 21.35-9.2 21.35-11.4L21.35-11.4 21.35-36.65Q21.35-37.7 22-38.38 22.65-39.05 23.7-39.05L23.7-39.05Q24.75-39.05 25.43-38.38 26.1-37.7 26.1-36.65L26.1-36.65 26.1-11.4Q26.1-7.95 24.55-5.25 23-2.55 20.33-1.03 17.65 0.5 14.15 0.5Z" opacity="1" transform="matrix(1,0,0,1,0,0)" fill="#1ebbd7" class="wordmark-text-0" data-fill-palette-color="quaternary" id="text-0"></path></svg></g></svg></g></svg></g></svg></g><g></g></svg></g><defs></defs></svg><rect width="228.97070321112514" height="247.2" fill="none" stroke="none" visibility="hidden"></rect></g></svg></g></svg>